<svg width="19" height="19" viewBox="0 0 19 19" fill="none" xmlns="http://www.w3.org/2000/svg">
<path d="M9.5 1.78125C5.24393 1.78125 1.78125 5.24393 1.78125 9.5C1.78125 13.7561 5.24393 17.2188 9.5 17.2188C13.7561 17.2188 17.2188 13.7561 17.2188 9.5C17.2188 5.24393 13.7561 1.78125 9.5 1.78125ZM9.5 13.6529C9.35321 13.6529 9.20971 13.6094 9.08766 13.5278C8.96561 13.4463 8.87048 13.3304 8.81431 13.1947C8.75813 13.0591 8.74344 12.9099 8.77207 12.7659C8.80071 12.622 8.8714 12.4897 8.97519 12.3859C9.07899 12.2821 9.21124 12.2114 9.35521 12.1828C9.49918 12.1542 9.64841 12.1689 9.78402 12.225C9.91964 12.2812 10.0356 12.3763 10.1171 12.4984C10.1987 12.6204 10.2422 12.7639 10.2422 12.9107C10.2422 13.1076 10.164 13.2963 10.0248 13.4355C9.88562 13.5747 9.69684 13.6529 9.5 13.6529ZM10.306 6.18836L10.093 10.7157C10.093 10.8732 10.0305 11.0242 9.9191 11.1355C9.80775 11.2469 9.65673 11.3095 9.49926 11.3095C9.34179 11.3095 9.19076 11.2469 9.07941 11.1355C8.96806 11.0242 8.90551 10.8732 8.90551 10.7157L8.6925 6.19059V6.18873C8.68783 6.07997 8.70522 5.9714 8.74362 5.86954C8.78202 5.76768 8.84064 5.67464 8.91595 5.59603C8.99125 5.51743 9.08169 5.45487 9.18181 5.41214C9.28193 5.36941 9.38966 5.34738 9.49852 5.34738C9.60737 5.34738 9.7151 5.36941 9.81522 5.41214C9.91534 5.45487 10.0058 5.51743 10.0811 5.59603C10.1564 5.67464 10.215 5.76768 10.2534 5.86954C10.2918 5.9714 10.3092 6.07997 10.3045 6.18873L10.306 6.18836Z" fill="#E63B3B"/>
</svg>
