<svg width="20" height="20" viewBox="0 0 20 20" fill="none" xmlns="http://www.w3.org/2000/svg">
<path d="M12.9833 16.4167C11.225 16.5417 11.225 19.0917 12.9833 19.2167H17.1583C17.6666 19.2167 18.15 19.0334 18.525 18.6917C19.7583 17.6167 19.1 15.45 17.475 15.25C16.8916 11.7334 11.8 13.0667 13.0083 16.4167" fill="#292D32"/>
<path d="M12.9833 16.4167C11.225 16.5417 11.225 19.0917 12.9833 19.2167H17.1583C17.6666 19.2167 18.15 19.0334 18.525 18.6917C19.7583 17.6167 19.1 15.45 17.475 15.25C16.8916 11.7334 11.8 13.0667 13.0083 16.4167" fill="#292D32"/>
<path d="M18.3333 9.22496V12.7833C18.3333 13.05 17.9083 13.1666 17.725 12.975C17.3333 12.5666 16.8416 12.2583 16.275 12.0833C14.9666 11.675 13.4583 12.075 12.5083 13.0583C11.9083 13.7 11.5833 14.5 11.5666 15.3666C11.5666 15.5166 11.4916 15.65 11.375 15.7416C10.775 16.2166 10.4083 16.9583 10.4083 17.8083V17.8166C10.4083 18.0833 10.2166 18.325 9.94996 18.325H6.11663C3.66663 18.3333 1.66663 16.3333 1.66663 13.875V5.34996C1.66663 3.31663 3.31663 1.66663 5.34996 1.66663H7.28329C8.64163 1.66663 9.06663 2.10829 9.60829 2.83329L10.775 4.38329C11.0333 4.72496 11.0666 4.76663 11.55 4.76663H13.875C15.8583 4.76663 17.5416 6.06663 18.1166 7.86663C18.2416 8.24163 18.3083 8.62496 18.325 9.03329C18.3333 9.09163 18.3333 9.16663 18.3333 9.22496Z" fill="#292D32"/>
</svg>
