<svg width="20" height="20" viewBox="0 0 20 20" fill="none" xmlns="http://www.w3.org/2000/svg">
<path d="M1.66663 5.83329C1.66663 2.49996 2.49996 1.66663 5.83329 1.66663H7.08329C8.33329 1.66663 8.60831 2.0333 9.08331 2.66664L10.3333 4.3333C10.65 4.74997 10.8333 4.99996 11.6666 4.99996H14.1666C17.5 4.99996 18.3333 5.83329 18.3333 9.16663V10.8333" stroke="#292D32" stroke-width="1.5" stroke-miterlimit="10" stroke-linecap="round" stroke-linejoin="round"/>
<path d="M7.49996 18.3334H5.83329C2.49996 18.3334 1.66663 17.5 1.66663 14.1667V10.025" stroke="#292D32" stroke-width="1.5" stroke-miterlimit="10" stroke-linecap="round" stroke-linejoin="round"/>
<path d="M11.4667 15.2667C9.50834 15.4084 9.50834 18.2417 11.4667 18.3834H16.1C16.6583 18.3834 17.2083 18.1751 17.6167 17.8001C18.9917 16.6001 18.2583 14.2001 16.45 13.9751C15.8 10.0667 10.15 11.5501 11.4834 15.2751" stroke="#292D32" stroke-width="1.5" stroke-miterlimit="10" stroke-linecap="round" stroke-linejoin="round"/>
</svg>
