<svg width="20" height="20" viewBox="0 0 20 20" fill="none" xmlns="http://www.w3.org/2000/svg">
<path d="M13.4916 1.66663H6.50829C3.47496 1.66663 1.66663 3.47496 1.66663 6.50829V13.4833C1.66663 16.525 3.47496 18.3333 6.50829 18.3333H13.4833C16.5166 18.3333 18.325 16.525 18.325 13.4916V6.50829C18.3333 3.47496 16.525 1.66663 13.4916 1.66663ZM15 10.625H6.50829L9.01663 13.1333C9.25829 13.375 9.25829 13.775 9.01663 14.0166C8.89163 14.1416 8.73329 14.2 8.57496 14.2C8.41663 14.2 8.25829 14.1416 8.13329 14.0166L4.55829 10.4416C4.44163 10.325 4.37496 10.1666 4.37496 9.99996C4.37496 9.83329 4.44163 9.67496 4.55829 9.55829L8.13329 5.98329C8.37496 5.74163 8.77496 5.74163 9.01663 5.98329C9.25829 6.22496 9.25829 6.62496 9.01663 6.86663L6.50829 9.37496H15C15.3416 9.37496 15.625 9.65829 15.625 9.99996C15.625 10.3416 15.3416 10.625 15 10.625Z" fill="#292D32"/>
</svg>
