<svg width="24" height="24" viewBox="0 0 24 24" fill="none" xmlns="http://www.w3.org/2000/svg">
<path d="M9.89001 14.82L11.34 15.94C11.53 16.13 11.95 16.22 12.23 16.22H14C14.56 16.22 15.17 15.8 15.31 15.24L16.43 11.82C16.66 11.17 16.24 10.6 15.54 10.6H13.67C13.39 10.6 13.16 10.3701 13.2 10.0401L13.43 8.54008C13.52 8.12008 13.24 7.65005 12.82 7.51005C12.45 7.37005 11.98 7.56 11.79 7.84L9.87 10.69" stroke="#292D32" stroke-width="1.5" stroke-miterlimit="10"/>
<path d="M7.5 14.8199V10.24C7.5 9.57999 7.78 9.34998 8.44 9.34998H8.91C9.56 9.34998 9.85001 9.57999 9.85001 10.24V14.8199C9.85001 15.4699 9.57 15.71 8.91 15.71H8.44C7.78 15.71 7.5 15.4799 7.5 14.8199Z" stroke="#292D32" stroke-width="1.5" stroke-linecap="round" stroke-linejoin="round"/>
<path d="M14.66 20.01L13.14 21.53C12.52 22.15 11.5 22.15 10.88 21.53L9.36002 20.01C9.10002 19.75 8.59005 19.54 8.23005 19.54H6.08002C5.20002 19.54 4.48005 18.8199 4.48005 17.9399V15.79C4.48005 15.43 4.27004 14.92 4.01004 14.66L2.49002 13.14C1.87002 12.52 1.87002 11.5 2.49002 10.88L4.01004 9.35999C4.27004 9.09999 4.48005 8.58998 4.48005 8.22998V6.07996C4.48005 5.19996 5.20002 4.47998 6.08002 4.47998" stroke="#292D32" stroke-width="1.5" stroke-linecap="round" stroke-linejoin="round"/>
<path d="M9.33997 3.99002L10.86 2.47C11.48 1.85 12.5 1.85 13.12 2.47L14.64 3.99002C14.9 4.25002 15.41 4.46 15.77 4.46H17.92C18.8 4.46 19.52 5.18009 19.52 6.06009V8.21C19.52 8.57 19.73 9.08 19.99 9.34L21.51 10.86C22.13 11.48 22.13 12.5 21.51 13.12L19.99 14.64C19.73 14.9 19.52 15.4101 19.52 15.7701V17.9201C19.52 18.8001 18.8 19.5201 17.92 19.5201" stroke="#292D32" stroke-width="1.5" stroke-linecap="round" stroke-linejoin="round"/>
</svg>
