<svg width="1015" height="1145" viewBox="0 0 1015 1145" fill="none" xmlns="http://www.w3.org/2000/svg">
<path fill-rule="evenodd" clip-rule="evenodd" d="M552.367 154.443C567.906 136.201 578.424 113.845 576.666 88.7951C571.603 16.6189 471.138 32.4967 451.596 68.9251C432.054 105.354 434.376 197.757 459.633 204.268C469.705 206.864 491.162 200.504 513 187.34L499.293 284.323H580.23L552.367 154.443Z" fill="#B28B67"/>
<path fill-rule="evenodd" clip-rule="evenodd" d="M469.835 44.9036C471.689 43.797 475.568 41.4629 477.533 40.6169C477.998 40.4134 481.254 38.0904 481.341 38.1198C483.806 38.9515 490.944 42.0222 491.557 44.6755C491.652 44.8766 491.745 45.0652 491.836 45.2301C492.847 47.0689 493.775 48.9535 494.661 50.861C496.604 55.0482 498.281 59.4245 499.882 63.7664C503.002 72.2223 505.712 80.8752 508.204 89.5478C510.741 98.3765 512.894 107.308 515.305 116.173C518.773 128.93 523.212 141.373 526.657 154.124C528.856 162.266 530.08 170.503 529.502 178.883C529.496 178.984 529.493 179.083 529.484 179.186C529.48 179.228 529.475 179.269 529.472 179.311C529.373 180.599 529.233 181.891 529.047 183.186C528.883 184.293 528.719 185.405 528.545 186.516C525.398 180.242 522.996 173.328 520.447 166.766C520.198 166.124 519.96 165.476 519.728 164.827C518.906 163.496 518.068 162.175 517.22 160.859C511.876 152.559 506.51 144.289 501.385 135.839C492.168 120.641 483.036 105.121 472.108 91.1643C468.881 87.043 465.579 82.9849 462.393 78.8298C460.579 76.4654 458.813 74.0614 457.104 71.6145C455.883 69.8649 450.572 63.7664 452.495 60.1022C453.479 58.2275 465.026 47.7745 469.835 44.9036Z" fill="#2C2C2C"/>
<path fill-rule="evenodd" clip-rule="evenodd" d="M476.947 40.9228C475.144 41.5287 476.022 37.7768 477.768 36.4565C485.858 30.3397 516.787 28.1201 543.702 33.7078C561.732 37.451 582.702 46.7676 597.104 58.7449C610.086 69.5424 619.014 86.8514 623.611 103.575C628.438 121.135 629.169 139.442 626.48 157.448C625.889 161.404 624.62 165.173 623.912 169.045C623.116 173.404 622.707 177.602 621.288 181.843C620.418 184.44 618.941 186.986 618.199 189.598C617.352 192.578 617.868 195.334 618.486 198.366C619.492 203.306 620.74 208.236 622.513 212.954C625.176 220.039 628.408 226.675 630.434 234.027C633.13 243.81 644.407 275.646 636.165 284.323H479.287C483.237 273.546 495.095 260.864 497.495 249.328C498.909 242.532 499.582 227.691 499.73 227.152C503.265 202.78 510.168 191.142 514.491 186.918C518.814 182.694 524.573 181.395 524.87 177.731C526.096 162.578 520.071 148.059 515.652 133.917C510.387 117.062 506.528 99.7882 501.099 82.9901C498.696 75.5516 486.308 37.7768 476.947 40.9228Z" fill="#8991DC"/>
<path fill-rule="evenodd" clip-rule="evenodd" d="M531.951 58.3555C537.867 77.1275 539.139 87.1479 537.867 112.797H540.769C546.19 88.592 541.365 65.8053 535.599 58.3555H531.951ZM611.317 106.801C600.292 133.553 595.266 149.351 564.481 170.999L566.858 172.664C597.419 155.342 606.319 134.681 613.635 107.916L611.317 106.801ZM566.021 79.5772C561.014 117.549 559.552 139.239 533.467 180.775L536.242 181.623C563.088 145.458 567.343 115.94 568.612 79.7857L566.021 79.5772ZM594.835 192.372L592.46 189.485C560.061 199.635 563.67 220.588 522.862 241.808L526.272 243.874C562.004 229.126 570.357 197.495 594.835 192.372Z" fill="black" fill-opacity="0.2"/>
<path fill-rule="evenodd" clip-rule="evenodd" d="M726.516 705.904H465.983L431.845 1124.11H819.67L726.516 705.904Z" fill="#C5CFD6"/>
<path fill-rule="evenodd" clip-rule="evenodd" d="M726.516 705.904H646.387L598.429 1124.11H819.67L726.516 705.904Z" fill="black" fill-opacity="0.1"/>
<path fill-rule="evenodd" clip-rule="evenodd" d="M168.956 634.256C141.179 617.575 94.5742 639.006 94.6062 662.864C94.702 734.244 159.839 1070.66 163.24 1091.93C166.641 1113.19 203.074 1118.81 205.195 1092C208.571 1049.33 214.843 901.629 208.568 833.264C205.977 805.044 203.188 778.169 200.441 754.192C234.621 815.922 287.483 904.303 359.025 1019.34L397.863 1001.59C367.365 901.1 342.356 830.155 322.838 788.758C289.418 717.876 258.082 657.175 244.893 635.793C224.148 602.16 188.037 613.895 168.956 634.256Z" fill="#B28B67"/>
<path fill-rule="evenodd" clip-rule="evenodd" d="M395.087 945.785L261.784 629.976C229.85 578.603 140.315 640.431 151.205 670.227C175.93 737.874 301.672 956.877 309.038 977.031L395.087 945.785Z" fill="#1F28CF"/>
<path fill-rule="evenodd" clip-rule="evenodd" d="M402.491 981.676C410.794 988.512 416.195 994.095 418.695 998.426C421.736 1003.69 425.296 1011.88 429.374 1023C423.264 1026.53 368.355 1058.23 264.647 1118.12C252.196 1106.44 250.257 1097.37 258.828 1090.91C267.399 1084.46 274.473 1079.02 280.048 1074.59L336.906 996.245C338 994.737 340.109 994.402 341.616 995.496C341.642 995.515 341.667 995.534 341.693 995.553L353.506 1004.65C364.344 1003.7 372.432 1001.69 377.77 998.608C382.107 996.104 387.085 990.894 392.704 982.979L392.704 982.979C394.86 979.941 399.071 979.227 402.108 981.383C402.239 981.476 402.367 981.574 402.491 981.676Z" fill="#E4E4E4"/>
<path fill-rule="evenodd" clip-rule="evenodd" d="M213.725 1074.88C217.498 1084.95 219.385 1092.49 219.385 1097.49C219.385 1103.57 218.372 1112.44 216.345 1124.11C209.29 1124.11 145.887 1124.11 26.1364 1124.11C21.1935 1107.77 24.0468 1098.95 34.6963 1097.64C45.3457 1096.34 54.1924 1095.16 61.2363 1094.11L149.644 1054.7C151.345 1053.94 153.339 1054.71 154.097 1056.41C154.11 1056.44 154.122 1056.46 154.135 1056.49L159.817 1070.28C169.676 1074.88 177.687 1077.18 183.851 1077.18C188.859 1077.18 195.775 1075.16 204.598 1071.11L204.598 1071.11C207.985 1069.56 211.988 1071.05 213.54 1074.43C213.607 1074.58 213.669 1074.73 213.725 1074.88Z" fill="#E4E4E4"/>
<path fill-rule="evenodd" clip-rule="evenodd" d="M85.2633 687.128C85.2633 776.73 127.812 985.734 127.839 1005.46L219.385 1005.53C205.985 819.041 201.234 724.79 205.131 722.781C210.976 719.768 444.742 746.123 514.852 746.123C615.951 746.123 657.774 682.364 661.168 564.253H460.894C420.116 568.616 207.417 611.521 128.424 626.27C94.6061 632.585 85.2633 662.446 85.2633 687.128Z" fill="#2B44FF"/>
<path fill-rule="evenodd" clip-rule="evenodd" d="M291.914 521.961L196.381 615.164C168.585 627.022 145.81 640.115 128.056 654.444C124.063 659.26 119.716 668.488 138.501 664.359C157.286 660.229 177.231 656.73 180.762 662.84C184.293 668.949 173.889 678.311 180.414 686.307C184.764 691.638 199.394 674.682 224.303 635.441L323.644 576.867L291.914 521.961ZM759.069 437.609L685.222 437.886C741.466 620.123 771.322 715.539 774.791 724.135C782.594 743.476 766.081 772.931 759.019 788.76C782.019 799.053 779.568 760.935 808.582 774.435C835.064 786.756 855.209 809.082 885.806 790.201C889.568 787.88 893.69 779.14 883.73 772.31C858.917 755.295 823.159 725.515 818.328 715.713C811.74 702.345 791.987 609.644 759.069 437.609Z" fill="#B28B67"/>
<path fill-rule="evenodd" clip-rule="evenodd" d="M534.045 228.108L504.884 223.106C458.946 385.505 222.917 496.203 208.427 556.912C203.114 579.175 219.135 590.43 210.859 597.211L248.763 624.961C255.182 617.471 268.88 631.171 297.485 621.588C326.09 612.005 534.045 420.402 534.045 228.108Z" fill="#DB2721"/>
<path fill-rule="evenodd" clip-rule="evenodd" d="M484.992 249.698C488.354 464.703 364.074 519.547 391.757 605.798C414.616 677.023 633.422 753.589 671.285 683.772C686.611 655.511 693.565 621.331 694.354 584.17C704.031 612.719 711.684 637.297 717.314 657.903C727.027 693.45 764.679 699.101 764.679 712.795L814.286 699.101C810.921 680.497 834.307 671.438 828.036 629.874C799.942 443.645 724.456 308.654 601.58 224.9L600.308 206.719C599.789 199.287 593.343 193.683 585.911 194.202L495.078 200.555C487.646 201.074 482.043 207.521 482.562 214.953L484.992 249.698Z" fill="#FF4133"/>
</svg>
