<svg id="visual" viewBox="0 0 1500 1500" width="1500" height="1500" xmlns="http://www.w3.org/2000/svg" xmlns:xlink="http://www.w3.org/1999/xlink" version="1.1"><rect x="0" y="0" width="1500" height="1500" fill="#FFFFFF"></rect><defs><linearGradient id="grad1_0" x1="0%" y1="100%" x2="100%" y2="0%"><stop offset="30%" stop-color="#ffffff" stop-opacity="1"></stop><stop offset="70%" stop-color="#ffffff" stop-opacity="1"></stop></linearGradient></defs><defs><linearGradient id="grad2_0" x1="0%" y1="100%" x2="100%" y2="0%"><stop offset="30%" stop-color="#ffffff" stop-opacity="1"></stop><stop offset="70%" stop-color="#ffffff" stop-opacity="1"></stop></linearGradient></defs><g transform="translate(1500, 1500)"><path d="M-954.6 0C-885.2 -102.4 -815.8 -204.7 -778.8 -322.6C-741.9 -440.5 -737.5 -573.8 -673.9 -673.9C-610.3 -773.9 -487.5 -840.7 -365.3 -881.9C-243.1 -923.2 -121.6 -938.9 0 -954.6L0 0Z" fill="#CCCCCC"></path></g><g transform="translate(0, 0)"><path d="M954.6 0C940.3 122.2 926.1 244.4 881.9 365.3C837.8 486.2 763.8 605.8 659.7 659.7C555.7 713.6 421.5 701.8 306.5 740C191.6 778.2 95.8 866.4 0 954.6L0 0Z" fill="#CCCCCC"></path></g></svg>